<?xml version="1.0" encoding="utf-8"?>
<!-- Generator: Adobe Illustrator 15.0.2, SVG Export Plug-In . SVG Version: 6.00 Build 0)  -->
<!DOCTYPE svg PUBLIC "-//W3C//DTD SVG 1.1//EN" "http://www.w3.org/Graphics/SVG/1.1/DTD/svg11.dtd">
<svg version="1.1" id="Layer_1" xmlns="http://www.w3.org/2000/svg" xmlns:xlink="http://www.w3.org/1999/xlink" x="0px" y="0px"
	 width="600px" height="215px" viewBox="0 0 600 215" enable-background="new 0 0 600 215" xml:space="preserve">
<g>
	<g>
		<g>
			<path fill="#AB710A" d="M78.554,141.641c-1.852-0.488-3.632-1.105-5.256-1.895c-3.859,6.051-12.79,21.361-14.059,35.232H82.36
				C78.928,163.197,78.402,150.298,78.554,141.641z"/>
			<path fill="#AB710A" d="M153.472,129.339c-4.763,10.761-8.354,21.565-10.738,32.281c-0.994,4.469,2.031,8.927,1.46,13.358h29.085
				c-7.66-21.162-9.479-51.959-13.361-64.258C159.821,110.569,153.571,129.494,153.472,129.339z"/>
		</g>
	</g>
	<path fill="#E3A835" d="M236.231,56.543c-6.619-9.463-21.707-17.286-25.229-28.024c-0.9-2.745-1.054-8.382,0.686-11.017
		c1.574-2.38-1.009-1.815-1.009-1.815c-3.752,1.453-5.375-2.693-5.375-2.693c-0.564-1.453,0.199-5.87-3.029-3.449
		c-5.833,4.373-3.91,14.986-2.821,19.33c0.756,3.339,4.213,12.732,11.085,19.432c1.801,1.757,13.723,14.771,12.099,21.452
		c-0.067,0.268-0.284,4.179-4.033,4.929c-8.63,1.727-11.436-8.846-11.436-8.846c-6.472-27.618-16.911-37.27-16.911-37.27
		c-19.158-0.73-33.353,1.044-50.504,4.349C75.152,30.503,26.541,50.349,26.541,50.349C12.324,70.736,4.009,108.561,4.009,108.561
		s-0.038,0.179,0.123,0.206c0.326,0.054,0.498-0.237,0.498-0.237c8.895-11.135,17.991-18.161,17.991-18.161
		c-1.347,52.594,10.571,84.61,10.571,84.61h22.561c1.589-18.944,16.485-39.911,16.485-39.911c8.387,6.36,27.332,4.482,27.332,4.482
		c3.328,12.725,10.124,35.429,10.124,35.429h27.187c2.472-19.626,8.749-37.021,14.79-50.067c0,0,6.736-15.27,6.953-19.801
		c0.431-7.982,7.983-10.357,12.083-10.357c4.098,0,22.734,10.413,36.679,9.709c24.269-1.221,33.845-12.45,34.307-25.244
		C242.012,70.391,239.943,61.85,236.231,56.543z M158.26,83.67c-0.121,0.337-0.274,0.681-0.505,1.01
		c-0.227,0.327-0.537,0.652-0.955,0.878c-0.414,0.233-0.919,0.325-1.374,0.303c-0.459-0.021-0.873-0.134-1.249-0.275
		c-1.48-0.61-2.526-1.555-3.534-2.481c-0.501-0.466-0.969-0.952-1.426-1.43c-0.451-0.471-0.916-0.972-1.314-1.374
		c-0.631-0.589-1.681-1.08-2.785-1.472c-1.118-0.386-2.32-0.715-3.563-1.023c-1.247-0.316-2.512-0.615-3.889-1.063
		c-0.347-0.117-0.699-0.252-1.081-0.423c-0.174-0.078-0.425-0.206-0.595-0.301c-0.248-0.142-0.487-0.311-0.708-0.501
		c-0.447-0.382-0.802-0.853-1.056-1.322c-0.252-0.473-0.416-0.945-0.521-1.393c-0.205-0.897-0.221-1.709-0.193-2.474
		c0.035-0.765,0.123-1.488,0.25-2.188c0.262-1.399,0.615-2.72,1.033-4.006c0.416-1.286,0.872-2.541,1.375-3.771
		c0.251-0.622,0.492-1.215,0.772-1.85c0.29-0.651,0.614-1.281,0.968-1.892c1.433-2.439,3.36-4.49,5.522-6.122
		c1.085-0.815,2.226-1.538,3.411-2.151c1.187-0.617,2.418-1.14,3.69-1.496c-2.155,1.508-4.097,3.216-5.79,5.087
		c-1.683,1.87-3.099,3.921-4.06,6.118c-0.244,0.545-0.457,1.103-0.638,1.666l-0.579,1.814c-0.37,1.225-0.743,2.441-1.056,3.656
		c-0.312,1.212-0.607,2.42-0.774,3.591c-0.086,0.584-0.155,1.157-0.17,1.693c-0.017,0.533,0.019,1.038,0.114,1.409
		c0.089,0.384,0.208,0.564,0.296,0.641c0.024,0.021,0.051,0.043,0.086,0.065c0.115,0.065,0.153,0.082,0.272,0.141
		c0.213,0.102,0.47,0.2,0.737,0.299c1.083,0.406,2.349,0.742,3.606,1.137c1.264,0.402,2.563,0.815,3.858,1.406
		c1.288,0.595,2.643,1.292,3.791,2.63c0.465,0.574,0.817,1.088,1.204,1.613c0.38,0.52,0.759,1.023,1.139,1.516
		c0.381,0.491,0.779,0.958,1.184,1.39c0.404,0.432,0.834,0.821,1.261,1.094c0.436,0.277,0.803,0.396,1.145,0.318
		c0.363-0.069,0.779-0.464,1.104-0.955c0.328-0.493,0.599-1.074,0.833-1.671c0.245-0.597,0.438-1.221,0.639-1.851
		C158.766,80.977,158.729,82.314,158.26,83.67z M182.281,66.914c-0.926,1.41-3.168,1.573-5.006,0.365
		c-1.839-1.208-2.576-3.332-1.651-4.741c0.927-1.41,3.168-1.572,5.005-0.364C182.469,63.381,183.208,65.503,182.281,66.914z"/>
	<radialGradient id="SVGID_1_" cx="178.2021" cy="36.4634" r="131.253" gradientUnits="userSpaceOnUse">
		<stop  offset="0" style="stop-color:#FFFFFF"/>
		<stop  offset="1" style="stop-color:#AB710A"/>
	</radialGradient>
	<path opacity="0.45" fill="url(#SVGID_1_)" d="M236.231,56.543c-6.619-9.463-21.707-17.286-25.229-28.024
		c-0.9-2.745-1.054-8.382,0.686-11.017c1.574-2.38-1.009-1.815-1.009-1.815c-3.752,1.453-5.375-2.693-5.375-2.693
		c-0.564-1.453,0.199-5.87-3.029-3.449c-5.833,4.373-3.91,14.986-2.821,19.33c0.756,3.339,4.213,12.732,11.085,19.432
		c1.801,1.757,13.723,14.771,12.099,21.452c-0.067,0.268-0.284,4.179-4.033,4.929c-8.63,1.727-11.436-8.846-11.436-8.846
		c-6.472-27.618-16.911-37.27-16.911-37.27c-19.158-0.73-33.353,1.044-50.504,4.349C75.152,30.503,26.541,50.349,26.541,50.349
		C12.324,70.736,4.009,108.561,4.009,108.561s-0.038,0.179,0.123,0.206c0.326,0.054,0.498-0.237,0.498-0.237
		c8.895-11.135,17.991-18.161,17.991-18.161c-1.347,52.594,10.571,84.61,10.571,84.61h22.561
		c1.589-18.944,16.485-39.911,16.485-39.911c8.387,6.36,27.332,4.482,27.332,4.482c3.328,12.725,10.124,35.429,10.124,35.429h27.187
		c2.472-19.626,8.749-37.021,14.79-50.067c0,0,6.736-15.27,6.953-19.801c0.431-7.982,7.983-10.357,12.083-10.357
		c4.098,0,22.734,10.413,36.679,9.709c24.269-1.221,33.845-12.45,34.307-25.244C242.012,70.391,239.943,61.85,236.231,56.543z
		 M158.26,83.67c-0.121,0.337-0.274,0.681-0.505,1.01c-0.227,0.327-0.537,0.652-0.955,0.878c-0.414,0.233-0.919,0.325-1.374,0.303
		c-0.459-0.021-0.873-0.134-1.249-0.275c-1.48-0.61-2.526-1.555-3.534-2.481c-0.501-0.466-0.969-0.952-1.426-1.43
		c-0.451-0.471-0.916-0.972-1.314-1.374c-0.631-0.589-1.681-1.08-2.785-1.472c-1.118-0.386-2.32-0.715-3.563-1.023
		c-1.247-0.316-2.512-0.615-3.889-1.063c-0.347-0.117-0.699-0.252-1.081-0.423c-0.174-0.078-0.425-0.206-0.595-0.301
		c-0.248-0.142-0.487-0.311-0.708-0.501c-0.447-0.382-0.802-0.853-1.056-1.322c-0.252-0.473-0.416-0.945-0.521-1.393
		c-0.205-0.897-0.221-1.709-0.193-2.474c0.035-0.765,0.123-1.488,0.25-2.188c0.262-1.399,0.615-2.72,1.033-4.006
		c0.416-1.286,0.872-2.541,1.375-3.771c0.251-0.622,0.492-1.215,0.772-1.85c0.29-0.651,0.614-1.281,0.968-1.892
		c1.433-2.439,3.36-4.49,5.522-6.122c1.085-0.815,2.226-1.538,3.411-2.151c1.187-0.617,2.418-1.14,3.69-1.496
		c-2.155,1.508-4.097,3.216-5.79,5.087c-1.683,1.87-3.099,3.921-4.06,6.118c-0.244,0.545-0.457,1.103-0.638,1.666l-0.579,1.814
		c-0.37,1.225-0.743,2.441-1.056,3.656c-0.312,1.212-0.607,2.42-0.774,3.591c-0.086,0.584-0.155,1.157-0.17,1.693
		c-0.017,0.533,0.019,1.038,0.114,1.409c0.089,0.384,0.208,0.564,0.296,0.641c0.024,0.021,0.051,0.043,0.086,0.065
		c0.115,0.065,0.153,0.082,0.272,0.141c0.213,0.102,0.47,0.2,0.737,0.299c1.083,0.406,2.349,0.742,3.606,1.137
		c1.264,0.402,2.563,0.815,3.858,1.406c1.288,0.595,2.643,1.292,3.791,2.63c0.465,0.574,0.817,1.088,1.204,1.613
		c0.38,0.52,0.759,1.023,1.139,1.516c0.381,0.491,0.779,0.958,1.184,1.39c0.404,0.432,0.834,0.821,1.261,1.094
		c0.436,0.277,0.803,0.396,1.145,0.318c0.363-0.069,0.779-0.464,1.104-0.955c0.328-0.493,0.599-1.074,0.833-1.671
		c0.245-0.597,0.438-1.221,0.639-1.851C158.766,80.977,158.729,82.314,158.26,83.67z M182.281,66.914
		c-0.926,1.41-3.168,1.573-5.006,0.365c-1.839-1.208-2.576-3.332-1.651-4.741c0.927-1.41,3.168-1.572,5.005-0.364
		C182.469,63.381,183.208,65.503,182.281,66.914z"/>
</g>
<radialGradient id="SVGID_2_" cx="212.8477" cy="64.4038" r="68.1277" gradientUnits="userSpaceOnUse">
	<stop  offset="0" style="stop-color:#D5D5D5"/>
	<stop  offset="1" style="stop-color:#141006"/>
</radialGradient>
<path fill="url(#SVGID_2_)" d="M559.069,95.729c-10.938,0-20.988,6.207-25.866,11.823L521.38,97.354h-5.618v17.161
	c-7.175-11.309-19.862-18.786-34.287-18.786c-14.392,0-26.992,7.444-34.136,18.712l-0.014-40.186l-20.557-17.831h-5.603v40.93
	h-15.507l-18.33,36.064l-18.471-36.064h-27.786l6.055,11.916c-7.054-8.273-17.791-13.541-29.997-13.541
	c-25.421,0-42.566,18.18-42.566,40.497c0,2.45,0.216,4.849,0.62,7.181c-5.645,2.686-11.304,5.8-21.706,5.8
	c-12.809,0-20.636-9.431-20.636-20.814c0-11.21,7.827-20.995,20.636-20.995c11.92,0,17.257,4.804,24.196,7.116v-26.15
	C269.668,83.026,262.553,80,250.634,80c-2.314,0-4.57,0.147-6.774,0.402c-0.64,8.192-5.754,24.753-36.361,26.294
	c-0.487,0.024-0.988,0.037-1.493,0.037c-0.376,0-0.756-0.018-1.136-0.031c-3.298,6.529-5.116,13.892-5.116,21.689
	c0,26.506,21.168,48.389,50.88,48.389c11.919,0,19.035-3.204,27.041-8.716v-16.121c6.016,14.217,20.523,24.186,41.374,24.186
	c13.6,0,26.31-6.059,33.552-13.895l-9.902-11.377c-4.729,3.989-10.494,6.502-18.327,6.502c-14.481,0-23.352-7.392-22.61-17.884h53.5
	c0.914-5.2,0.727-10.239-0.373-14.936l18.402,36.217l-23.646,46.555h27.047l44.475-87.305v54.496h26.198l-0.007-17.06
	c7.145,11.254,19.737,18.686,34.117,18.686c14.425,0,27.112-7.477,34.287-18.784v17.158h26.31v-40.201v-9.752
	c2.956-5.174,6.948-8.575,13.449-8.575c6.503,0,9.46,3.993,9.46,16.111v3.4v39.017h26.308v-49.659
	C591.288,109.77,582.124,95.729,559.069,95.729z M302.794,124.105c2.808-7.686,8.869-11.823,14.188-11.823
	c7.979,0,12.563,5.024,12.563,11.823H302.794z M481.475,157.062c-6.943,0-12.857-9.458-12.857-21.13
	c0-11.68,5.914-21.137,12.857-21.137c7.097,0,13.009,9.457,13.009,21.137C494.483,147.604,488.571,157.062,481.475,157.062z"/>
</svg>
